<svg xmlns="http://www.w3.org/2000/svg" xmlns:xlink="http://www.w3.org/1999/xlink" width="567" zoomAndPan="magnify" viewBox="0 0 425.25 119.999999" height="160" preserveAspectRatio="xMidYMid meet" version="1.2"><defs><clipPath id="6a2a45544d"><path d="M 268.765625 42 L 284 42 L 284 62 L 268.765625 62 Z M 268.765625 42 "/></clipPath><clipPath id="cffd280103"><path d="M 274 32.773438 L 293 32.773438 L 293 53 L 274 53 Z M 274 32.773438 "/></clipPath><clipPath id="de93355284"><path d="M 270 63 L 293 63 L 293 76.601562 L 270 76.601562 Z M 270 63 "/></clipPath><clipPath id="27befb86a5"><path d="M 297 48 L 312.597656 48 L 312.597656 68 L 297 68 Z M 297 48 "/></clipPath><clipPath id="b2d8f92747"><path d="M 288 57 L 307 57 L 307 76.601562 L 288 76.601562 Z M 288 57 "/></clipPath></defs><g id="a676f39e16"><g style="fill:#ffffff;fill-opacity:1;"><g transform="translate(25.020455, 77.162833)"><path style="stroke:none" d="M 4.625 0 L 4.625 -57.71875 L 31.171875 -57.71875 C 34.097656 -57.71875 36.609375 -57.34375 38.703125 -56.59375 C 40.796875 -55.84375 42.515625 -54.851562 43.859375 -53.625 C 45.210938 -52.394531 46.28125 -51.035156 47.0625 -49.546875 C 47.851562 -48.066406 48.398438 -46.601562 48.703125 -45.15625 C 49.015625 -43.71875 49.171875 -42.421875 49.171875 -41.265625 C 49.171875 -40.109375 49.015625 -38.804688 48.703125 -37.359375 C 48.398438 -35.921875 47.851562 -34.476562 47.0625 -33.03125 C 46.28125 -31.59375 45.210938 -30.257812 43.859375 -29.03125 C 42.515625 -27.800781 40.800781 -26.800781 38.71875 -26.03125 C 36.644531 -25.257812 34.128906 -24.851562 31.171875 -24.8125 L 29.5 -24.8125 C 28.644531 -24.8125 28.253906 -24.675781 28.328125 -24.40625 C 28.410156 -24.144531 28.800781 -23.742188 29.5 -23.203125 C 31.113281 -21.929688 32.753906 -20.238281 34.421875 -18.125 C 36.097656 -16.007812 37.992188 -13.523438 40.109375 -10.671875 C 41.304688 -9.097656 42.566406 -7.597656 43.890625 -6.171875 C 45.222656 -4.753906 46.492188 -3.515625 47.703125 -2.453125 C 48.910156 -1.390625 49.941406 -0.570312 50.796875 0 L 44.265625 0 C 42.921875 -0.8125 41.535156 -1.972656 40.109375 -3.484375 C 38.691406 -5.003906 37.269531 -6.707031 35.84375 -8.59375 C 34.414062 -10.476562 33 -12.363281 31.59375 -14.25 C 30.195312 -16.132812 28.820312 -17.875 27.46875 -19.46875 C 26.125 -21.070312 24.816406 -22.363281 23.546875 -23.34375 C 22.273438 -24.320312 21.0625 -24.8125 19.90625 -24.8125 L 14.78125 -24.8125 L 14.78125 -25.96875 L 26.09375 -25.96875 C 31.863281 -25.96875 36.238281 -27.34375 39.21875 -30.09375 C 42.195312 -32.851562 43.6875 -36.578125 43.6875 -41.265625 C 43.6875 -45.960938 42.195312 -49.6875 39.21875 -52.4375 C 36.238281 -55.1875 31.863281 -56.5625 26.09375 -56.5625 L 12.234375 -56.5625 C 11.191406 -56.5625 10.421875 -56.347656 9.921875 -55.921875 C 9.421875 -55.503906 9.171875 -54.503906 9.171875 -52.921875 C 9.171875 -52.691406 9.171875 -51.78125 9.171875 -50.1875 C 9.171875 -48.59375 9.171875 -46.515625 9.171875 -43.953125 C 9.171875 -41.390625 9.171875 -38.550781 9.171875 -35.4375 C 9.171875 -32.320312 9.179688 -29.117188 9.203125 -25.828125 C 9.222656 -22.535156 9.234375 -19.347656 9.234375 -16.265625 C 9.234375 -13.191406 9.234375 -10.429688 9.234375 -7.984375 C 9.234375 -5.546875 9.234375 -3.601562 9.234375 -2.15625 C 9.234375 -0.71875 9.234375 0 9.234375 0 Z M 4.625 0 "/></g></g><g style="fill:#ffffff;fill-opacity:1;"><g transform="translate(76.953193, 77.162833)"><path style="stroke:none" d="M 3.0625 -9.234375 C 3.0625 -11.929688 3.617188 -14.171875 4.734375 -15.953125 C 5.847656 -17.742188 7.316406 -19.207031 9.140625 -20.34375 C 10.972656 -21.476562 12.972656 -22.378906 15.140625 -23.046875 C 17.316406 -23.722656 19.492188 -24.273438 21.671875 -24.703125 C 23.847656 -25.128906 25.847656 -25.550781 27.671875 -25.96875 C 29.503906 -26.394531 30.976562 -26.914062 32.09375 -27.53125 C 33.207031 -28.144531 33.765625 -28.972656 33.765625 -30.015625 C 33.765625 -32.285156 33.3125 -34.082031 32.40625 -35.40625 C 31.5 -36.738281 30.390625 -37.722656 29.078125 -38.359375 C 27.773438 -38.992188 26.457031 -39.414062 25.125 -39.625 C 23.800781 -39.832031 22.738281 -39.9375 21.9375 -39.9375 C 19.695312 -39.9375 17.929688 -39.597656 16.640625 -38.921875 C 15.359375 -38.253906 14.351562 -37.429688 13.625 -36.453125 C 12.894531 -35.472656 12.296875 -34.488281 11.828125 -33.5 C 11.367188 -32.519531 10.867188 -31.691406 10.328125 -31.015625 C 9.796875 -30.347656 9.066406 -30.015625 8.140625 -30.015625 C 7.554688 -30.015625 7.09375 -30.242188 6.75 -30.703125 C 6.40625 -31.171875 6.234375 -31.726562 6.234375 -32.375 C 6.234375 -33.570312 6.675781 -34.695312 7.5625 -35.75 C 8.445312 -36.8125 9.597656 -37.734375 11.015625 -38.515625 C 12.441406 -39.304688 14.019531 -39.929688 15.75 -40.390625 C 17.488281 -40.859375 19.1875 -41.09375 20.84375 -41.09375 C 24.613281 -41.09375 27.804688 -40.445312 30.421875 -39.15625 C 33.035156 -37.875 35.015625 -36.164062 36.359375 -34.03125 C 37.710938 -31.894531 38.390625 -29.570312 38.390625 -27.0625 L 38.390625 0 L 33.765625 0 L 33.765625 -5.1875 C 33.765625 -6.226562 33.492188 -6.75 32.953125 -6.75 C 32.535156 -6.75 32.09375 -6.539062 31.625 -6.125 C 30.207031 -4.925781 28.660156 -3.769531 26.984375 -2.65625 C 25.304688 -1.539062 23.535156 -0.628906 21.671875 0.078125 C 19.804688 0.796875 17.851562 1.15625 15.8125 1.15625 C 13.269531 1.15625 11.035156 0.710938 9.109375 -0.171875 C 7.191406 -1.054688 5.703125 -2.285156 4.640625 -3.859375 C 3.585938 -5.441406 3.0625 -7.234375 3.0625 -9.234375 Z M 21.0625 -23.609375 C 18.644531 -23.179688 16.460938 -22.34375 14.515625 -21.09375 C 12.566406 -19.84375 11.035156 -18.289062 9.921875 -16.4375 C 8.804688 -14.59375 8.25 -12.539062 8.25 -10.28125 C 8.25 -8.15625 8.710938 -6.421875 9.640625 -5.078125 C 10.566406 -3.734375 11.769531 -2.734375 13.25 -2.078125 C 14.726562 -1.421875 16.273438 -1.09375 17.890625 -1.09375 C 19.816406 -1.09375 21.644531 -1.421875 23.375 -2.078125 C 25.101562 -2.734375 26.707031 -3.597656 28.1875 -4.671875 C 29.675781 -5.753906 30.957031 -6.910156 32.03125 -8.140625 C 32.570312 -8.710938 32.992188 -9.476562 33.296875 -10.4375 C 33.609375 -11.40625 33.765625 -12.367188 33.765625 -13.328125 L 33.765625 -23.671875 C 33.765625 -24.515625 33.523438 -25.109375 33.046875 -25.453125 C 32.566406 -25.796875 31.898438 -25.851562 31.046875 -25.625 C 29.546875 -25.207031 27.988281 -24.851562 26.375 -24.5625 C 24.757812 -24.269531 22.988281 -23.953125 21.0625 -23.609375 Z M 21.0625 -23.609375 "/></g></g><g style="fill:#ffffff;fill-opacity:1;"><g transform="translate(119.364932, 77.162833)"><path style="stroke:none" d="M -0.6875 -39.9375 L 4.5 -39.9375 L 18.8125 -4.09375 C 19.125 -3.289062 19.453125 -2.890625 19.796875 -2.890625 C 20.179688 -2.890625 20.488281 -3.3125 20.71875 -4.15625 L 31.21875 -39.9375 L 36.359375 -39.9375 L 20.4375 0 L 15.234375 0 Z M -0.6875 -39.9375 "/></g></g><g style="fill:#ffffff;fill-opacity:1;"><g transform="translate(155.775553, 77.162833)"><path style="stroke:none" d="M 8.421875 0 L 3.8125 0 L 3.8125 -39.9375 L 8.421875 -39.9375 Z M 0.75 -49.125 C 0.5625 -49.195312 0.46875 -49.28125 0.46875 -49.375 C 0.46875 -49.46875 0.5625 -49.535156 0.75 -49.578125 C 1.820312 -49.921875 2.664062 -50.273438 3.28125 -50.640625 C 3.90625 -51.015625 4.410156 -51.546875 4.796875 -52.234375 C 5.179688 -52.929688 5.546875 -53.894531 5.890625 -55.125 C 5.960938 -55.3125 6.078125 -55.40625 6.234375 -55.40625 C 6.390625 -55.40625 6.484375 -55.3125 6.515625 -55.125 C 6.867188 -53.894531 7.238281 -52.929688 7.625 -52.234375 C 8.007812 -51.546875 8.507812 -51.007812 9.125 -50.625 C 9.738281 -50.238281 10.582031 -49.890625 11.65625 -49.578125 C 11.851562 -49.535156 11.953125 -49.46875 11.953125 -49.375 C 11.953125 -49.28125 11.851562 -49.195312 11.65625 -49.125 C 10.613281 -48.769531 9.753906 -48.410156 9.078125 -48.046875 C 8.410156 -47.679688 7.882812 -47.160156 7.5 -46.484375 C 7.113281 -45.816406 6.785156 -44.828125 6.515625 -43.515625 C 6.484375 -43.367188 6.378906 -43.296875 6.203125 -43.296875 C 6.023438 -43.296875 5.921875 -43.367188 5.890625 -43.515625 C 5.546875 -44.828125 5.179688 -45.816406 4.796875 -46.484375 C 4.410156 -47.160156 3.90625 -47.679688 3.28125 -48.046875 C 2.664062 -48.410156 1.820312 -48.769531 0.75 -49.125 Z M 0.75 -49.125 "/></g></g><g style="fill:#ffffff;fill-opacity:1;"><g transform="translate(168.181701, 77.162833)"><path style="stroke:none" d="M 4.625 0 L 4.625 -57.71875 L 9.171875 -57.71875 L 9.171875 -33.9375 C 9.171875 -32.863281 9.476562 -32.328125 10.09375 -32.328125 C 10.476562 -32.328125 10.90625 -32.535156 11.375 -32.953125 C 14.488281 -35.691406 17.613281 -38.503906 20.75 -41.390625 C 23.882812 -44.273438 26.921875 -47.109375 29.859375 -49.890625 C 32.804688 -52.679688 35.53125 -55.289062 38.03125 -57.71875 L 45.25 -57.71875 L 13.5625 -33.25 C 12.875 -32.75 12.585938 -32.320312 12.703125 -31.96875 C 12.816406 -31.625 13.296875 -31.453125 14.140625 -31.453125 L 15.359375 -31.453125 C 17.816406 -31.453125 20.035156 -30.703125 22.015625 -29.203125 C 24.003906 -27.703125 26.015625 -25.578125 28.046875 -22.828125 C 30.085938 -20.078125 32.414062 -16.816406 35.03125 -13.046875 C 36.414062 -11.078125 37.835938 -9.238281 39.296875 -7.53125 C 40.765625 -5.820312 42.179688 -4.3125 43.546875 -3 C 44.910156 -1.6875 46.078125 -0.6875 47.046875 0 L 40.234375 0 C 38.691406 -1 37.128906 -2.429688 35.546875 -4.296875 C 33.972656 -6.160156 32.382812 -8.238281 30.78125 -10.53125 C 29.1875 -12.820312 27.59375 -15.140625 26 -17.484375 C 24.40625 -19.835938 22.828125 -21.992188 21.265625 -23.953125 C 19.710938 -25.910156 18.175781 -27.484375 16.65625 -28.671875 C 15.132812 -29.867188 13.660156 -30.46875 12.234375 -30.46875 L 11.78125 -30.46875 C 10.039062 -30.4375 9.171875 -29.476562 9.171875 -27.59375 C 9.171875 -24.164062 9.171875 -20.816406 9.171875 -17.546875 C 9.171875 -14.273438 9.179688 -11.3125 9.203125 -8.65625 C 9.222656 -6 9.234375 -3.890625 9.234375 -2.328125 C 9.234375 -0.773438 9.234375 0 9.234375 0 Z M 4.625 0 "/></g></g><g style="fill:#ffffff;fill-opacity:1;"><g transform="translate(215.107672, 77.162951)"><path style="stroke:none" d="M -0.6875 -39.9375 L 4.5 -39.9375 L 18.8125 -4.09375 C 19.125 -3.289062 19.453125 -2.890625 19.796875 -2.890625 C 20.179688 -2.890625 20.488281 -3.3125 20.71875 -4.15625 L 31.21875 -39.9375 L 36.359375 -39.9375 L 20.4375 0 L 15.234375 0 Z M -0.6875 -39.9375 "/></g></g><g style="fill:#ffffff;fill-opacity:1;"><g transform="translate(251.518294, 77.162951)"><path style="stroke:none" d="M 8.65625 0 L 4.046875 0 L 4.046875 -57.71875 L 8.65625 -57.71875 Z M 8.65625 0 "/></g></g><g style="fill:#ffffff;fill-opacity:1;"><g transform="translate(264.219426, 77.162951)"><path style="stroke:none" d=""/></g></g><g style="fill:#ffffff;fill-opacity:1;"><g transform="translate(281.530346, 77.162951)"><path style="stroke:none" d=""/></g></g><g style="fill:#ffffff;fill-opacity:1;"><g transform="translate(298.841265, 77.162951)"><path style="stroke:none" d=""/></g></g><g style="fill:#ffffff;fill-opacity:1;"><g transform="translate(316.166975, 77.162951)"><path style="stroke:none" d="M 18.875 1.15625 C 16.5625 1.15625 14.441406 0.632812 12.515625 -0.40625 C 10.597656 -1.445312 8.914062 -2.859375 7.46875 -4.640625 C 6.03125 -6.429688 4.914062 -8.453125 4.125 -10.703125 C 3.332031 -12.953125 2.9375 -15.289062 2.9375 -17.71875 C 2.9375 -21.101562 3.550781 -24.160156 4.78125 -26.890625 C 6.019531 -29.628906 7.695312 -31.96875 9.8125 -33.90625 C 11.925781 -35.851562 14.359375 -37.34375 17.109375 -38.375 C 19.859375 -39.414062 22.738281 -39.9375 25.75 -39.9375 L 39.078125 -39.9375 L 39.078125 -0.578125 C 39.078125 1.421875 38.894531 3.5 38.53125 5.65625 C 38.164062 7.8125 37.554688 9.890625 36.703125 11.890625 C 35.859375 13.890625 34.710938 15.6875 33.265625 17.28125 C 31.828125 18.882812 30.054688 20.15625 27.953125 21.09375 C 25.859375 22.039062 23.351562 22.515625 20.4375 22.515625 C 17.738281 22.515625 15.300781 22.078125 13.125 21.203125 C 10.957031 20.335938 9.066406 19.140625 7.453125 17.609375 L 8.203125 16.734375 C 8.660156 17.085938 9.390625 17.640625 10.390625 18.390625 C 11.390625 19.140625 12.722656 19.820312 14.390625 20.4375 C 16.066406 21.050781 18.097656 21.359375 20.484375 21.359375 C 22.523438 21.359375 24.410156 20.828125 26.140625 19.765625 C 27.878906 18.710938 29.390625 17.234375 30.671875 15.328125 C 31.960938 13.421875 32.972656 11.1875 33.703125 8.625 C 34.429688 6.070312 34.796875 3.3125 34.796875 0.34375 L 34.796875 -1.5625 C 34.796875 -3.21875 34.488281 -4.046875 33.875 -4.046875 C 33.414062 -4.046875 32.648438 -3.601562 31.578125 -2.71875 C 29.992188 -1.40625 28.113281 -0.429688 25.9375 0.203125 C 23.769531 0.835938 21.414062 1.15625 18.875 1.15625 Z M 25.921875 -38.78125 C 21.878906 -38.78125 18.5 -37.914062 15.78125 -36.1875 C 13.070312 -34.457031 11.035156 -32.015625 9.671875 -28.859375 C 8.304688 -25.703125 7.625 -22.007812 7.625 -17.78125 C 7.625 -14.539062 8.179688 -11.601562 9.296875 -8.96875 C 10.410156 -6.332031 11.96875 -4.222656 13.96875 -2.640625 C 15.96875 -1.066406 18.316406 -0.28125 21.015625 -0.28125 C 23.085938 -0.28125 24.988281 -0.617188 26.71875 -1.296875 C 28.457031 -1.972656 29.953125 -2.867188 31.203125 -3.984375 C 32.453125 -5.097656 33.34375 -6.328125 33.875 -7.671875 C 34.1875 -8.398438 34.34375 -9.398438 34.34375 -10.671875 L 34.34375 -35.90625 C 34.34375 -36.789062 34.082031 -37.488281 33.5625 -38 C 33.039062 -38.519531 32.335938 -38.78125 31.453125 -38.78125 Z M 25.921875 -38.78125 "/></g></g><g style="fill:#ffffff;fill-opacity:1;"><g transform="translate(359.271148, 77.162951)"><path style="stroke:none" d="M 3.109375 -7.21875 C 3.109375 -7.875 3.328125 -8.421875 3.765625 -8.859375 C 4.210938 -9.304688 4.765625 -9.53125 5.421875 -9.53125 C 6.117188 -9.53125 6.734375 -9.210938 7.265625 -8.578125 C 7.804688 -7.941406 8.375 -7.148438 8.96875 -6.203125 C 9.570312 -5.265625 10.296875 -4.3125 11.140625 -3.34375 C 11.984375 -2.382812 13.054688 -1.585938 14.359375 -0.953125 C 15.671875 -0.316406 17.328125 0 19.328125 0 C 21.179688 0 22.914062 -0.296875 24.53125 -0.890625 C 26.144531 -1.492188 27.546875 -2.285156 28.734375 -3.265625 C 29.929688 -4.242188 30.863281 -5.300781 31.53125 -6.4375 C 32.207031 -7.570312 32.546875 -8.675781 32.546875 -9.75 C 32.546875 -11.519531 32.140625 -12.960938 31.328125 -14.078125 C 30.523438 -15.191406 29.429688 -16.066406 28.046875 -16.703125 C 26.660156 -17.335938 25.113281 -17.859375 23.40625 -18.265625 C 21.695312 -18.671875 19.9375 -19.035156 18.125 -19.359375 C 16.3125 -19.691406 14.550781 -20.097656 12.84375 -20.578125 C 11.132812 -21.054688 9.585938 -21.691406 8.203125 -22.484375 C 6.816406 -23.273438 5.71875 -24.332031 4.90625 -25.65625 C 4.09375 -26.976562 3.6875 -28.679688 3.6875 -30.765625 C 3.6875 -32.691406 4.265625 -34.429688 5.421875 -35.984375 C 6.578125 -37.546875 8.257812 -38.785156 10.46875 -39.703125 C 12.6875 -40.628906 15.410156 -41.09375 18.640625 -41.09375 C 23.492188 -41.09375 27.140625 -40.640625 29.578125 -39.734375 C 32.023438 -38.835938 33.25 -37.597656 33.25 -36.015625 C 33.25 -35.585938 33.023438 -35.171875 32.578125 -34.765625 C 32.140625 -34.367188 31.628906 -34.171875 31.046875 -34.171875 C 30.160156 -34.171875 29.3125 -34.476562 28.5 -35.09375 C 27.695312 -35.707031 26.832031 -36.425781 25.90625 -37.25 C 24.988281 -38.082031 23.953125 -38.804688 22.796875 -39.421875 C 21.640625 -40.035156 20.273438 -40.34375 18.703125 -40.34375 C 16.585938 -40.34375 14.75 -39.921875 13.1875 -39.078125 C 11.625 -38.234375 10.410156 -37.15625 9.546875 -35.84375 C 8.679688 -34.53125 8.25 -33.164062 8.25 -31.75 C 8.25 -30.007812 8.75 -28.648438 9.75 -27.671875 C 10.75 -26.691406 12.066406 -25.929688 13.703125 -25.390625 C 15.335938 -24.859375 17.132812 -24.40625 19.09375 -24.03125 C 21.0625 -23.664062 23.023438 -23.253906 24.984375 -22.796875 C 26.953125 -22.335938 28.753906 -21.691406 30.390625 -20.859375 C 32.023438 -20.035156 33.34375 -18.890625 34.34375 -17.421875 C 35.34375 -15.960938 35.84375 -14.039062 35.84375 -11.65625 C 35.84375 -8.925781 35.082031 -6.597656 33.5625 -4.671875 C 32.039062 -2.753906 29.988281 -1.300781 27.40625 -0.3125 C 24.832031 0.664062 21.929688 1.15625 18.703125 1.15625 C 16.660156 1.15625 14.707031 0.90625 12.84375 0.40625 C 10.976562 -0.09375 9.3125 -0.753906 7.84375 -1.578125 C 6.382812 -2.410156 5.226562 -3.316406 4.375 -4.296875 C 3.53125 -5.273438 3.109375 -6.25 3.109375 -7.21875 Z M 3.109375 -7.21875 "/></g></g><path style="fill:none;stroke-width:3;stroke-linecap:butt;stroke-linejoin:miter;stroke:#ffffff;stroke-opacity:1;stroke-miterlimit:4;" d="M -0.000906751 1.499021 L 285.749946 1.499021 " transform="matrix(1.019286,0,0,1.019286,25.020455,94.245507)"/><g clip-rule="nonzero" clip-path="url(#6a2a45544d)"><path style=" stroke:none;fill-rule:nonzero;fill:#ffffff;fill-opacity:1;" d="M 283.757812 61.109375 L 272.488281 42.40625 C 270.125 45.902344 268.742188 50.113281 268.742188 54.640625 C 268.742188 56.894531 269.085938 59.066406 269.71875 61.109375 Z M 283.757812 61.109375 "/></g><path style=" stroke:none;fill-rule:nonzero;fill:#ffffff;fill-opacity:1;" d="M 288.492188 45.359375 L 310.460938 45.359375 C 307.636719 39.359375 302.171875 34.84375 295.570312 33.316406 Z M 288.492188 45.359375 "/><g clip-rule="nonzero" clip-path="url(#cffd280103)"><path style=" stroke:none;fill-rule:nonzero;fill:#ffffff;fill-opacity:1;" d="M 281.441406 52.136719 L 292.773438 32.855469 C 292.070312 32.785156 291.359375 32.75 290.636719 32.75 C 284.109375 32.75 278.246094 35.625 274.230469 40.167969 Z M 281.441406 52.136719 "/></g><g clip-rule="nonzero" clip-path="url(#de93355284)"><path style=" stroke:none;fill-rule:nonzero;fill:#ffffff;fill-opacity:1;" d="M 286.007812 75.847656 L 292.941406 63.753906 L 270.738281 63.753906 C 273.652344 70.089844 279.496094 74.800781 286.523438 76.144531 Z M 286.007812 75.847656 "/></g><g clip-rule="nonzero" clip-path="url(#27befb86a5)"><path style=" stroke:none;fill-rule:nonzero;fill:#ffffff;fill-opacity:1;" d="M 297.480469 48.003906 L 308.550781 67.210938 C 311.054688 63.648438 312.53125 59.316406 312.53125 54.640625 C 312.53125 52.328125 312.167969 50.101562 311.5 48.003906 Z M 297.480469 48.003906 "/></g><g clip-rule="nonzero" clip-path="url(#b2d8f92747)"><path style=" stroke:none;fill-rule:nonzero;fill:#ffffff;fill-opacity:1;" d="M 299.738281 57.21875 L 288.714844 76.445312 C 289.347656 76.503906 289.988281 76.535156 290.636719 76.535156 C 297.015625 76.535156 302.765625 73.792969 306.769531 69.425781 Z M 299.738281 57.21875 "/></g></g></svg>